<?xml version="1.0" standalone="no"?>
<!DOCTYPE svg PUBLIC "-//W3C//DTD SVG 20010904//EN"
 "http://www.w3.org/TR/2001/REC-SVG-20010904/DTD/svg10.dtd">
<svg version="1.0" xmlns="http://www.w3.org/2000/svg"
 width="1969.000000pt" height="1969.000000pt" viewBox="0 0 1969.000000 1969.000000"
 preserveAspectRatio="xMidYMid meet">
<metadata>
Created by potrace 1.14, written by Peter Selinger 2001-2017
</metadata>
<g transform="translate(0.000000,1969.000000) scale(0.100000,-0.100000)"
fill="#000000" stroke="none">
<path d="M9860 18953 c-235 -17 -310 -29 -337 -55 -13 -12 -23 -27 -23 -34 0
-20 -43 -22 -65 -3 -50 43 -145 14 -145 -43 0 -23 -37 -24 -62 -1 -25 23 -59
19 -163 -17 -248 -87 -429 -201 -715 -450 -167 -146 -185 -160 -197 -160 -7 0
-13 -5 -13 -10 0 -10 -98 -110 -301 -306 -235 -227 -512 -568 -662 -816 -91
-150 -351 -678 -386 -783 -31 -94 -65 -252 -75 -345 -3 -30 -8 -134 -11 -230
-5 -151 -9 -188 -33 -270 -24 -83 -27 -112 -27 -235 0 -127 7 -237 20 -305 2
-14 16 -101 30 -195 26 -174 53 -341 61 -385 12 -61 33 -204 38 -258 9 -100
27 -210 55 -342 11 -52 22 -108 25 -125 2 -16 14 -74 26 -129 12 -54 23 -106
25 -115 27 -137 56 -236 102 -356 46 -122 66 -157 137 -245 102 -126 286 -323
393 -421 99 -91 272 -194 358 -214 87 -21 89 -22 128 -99 21 -41 64 -110 94
-153 31 -43 60 -93 64 -111 6 -30 5 -32 -14 -26 -62 20 -91 40 -153 109 -38
41 -75 75 -81 75 -7 0 -13 4 -13 10 0 5 -6 7 -12 5 -7 -2 -35 -6 -63 -9 -56
-5 -91 -12 -150 -28 -57 -14 -303 -75 -332 -82 -7 -1 -16 -5 -19 -9 -4 -4 -15
-7 -25 -7 -9 0 -30 -6 -46 -14 -15 -8 -39 -19 -53 -24 -14 -6 -55 -24 -91 -41
-37 -17 -72 -31 -78 -31 -15 0 -247 -79 -301 -103 -25 -11 -66 -21 -91 -23
-102 -8 -250 -104 -337 -220 -87 -117 -142 -246 -201 -476 -32 -124 -52 -172
-99 -230 -31 -40 -140 -163 -182 -207 -14 -14 -50 -55 -80 -90 -66 -78 -88
-101 -96 -101 -10 0 -34 -28 -34 -39 0 -6 -4 -11 -10 -11 -5 0 -10 -5 -10 -10
0 -11 -10 -25 -46 -64 -48 -51 -175 -230 -219 -308 -26 -46 -61 -119 -78 -163
-30 -76 -31 -87 -33 -242 -1 -120 2 -169 12 -188 13 -26 13 -27 -34 -47 -195
-85 -532 -244 -757 -359 -226 -114 -358 -191 -560 -325 -185 -122 -234 -153
-453 -288 -262 -161 -529 -343 -633 -430 -20 -17 -49 -41 -65 -53 -16 -12 -41
-32 -56 -45 -14 -13 -35 -30 -45 -38 -196 -160 -399 -370 -480 -496 -7 -10
-24 -36 -38 -57 -14 -21 -25 -41 -25 -44 0 -4 -7 -14 -15 -23 -30 -33 -93
-228 -111 -345 -4 -27 -8 -55 -9 -61 -2 -6 -6 -37 -10 -69 -6 -53 -21 -85 -42
-85 -22 0 -123 -161 -189 -300 -41 -85 -81 -168 -89 -183 -8 -16 -15 -33 -15
-39 0 -5 -14 -42 -31 -81 -16 -40 -34 -81 -39 -92 -26 -61 -104 -287 -210
-603 -65 -196 -151 -451 -191 -567 -40 -115 -80 -237 -89 -270 -10 -33 -39
-132 -65 -220 -60 -203 -89 -319 -159 -630 -48 -218 -148 -682 -162 -755 -2
-14 -13 -68 -24 -120 -10 -52 -21 -106 -24 -120 -19 -109 -50 -282 -66 -365
-10 -55 -21 -113 -24 -130 -5 -30 -28 -130 -68 -295 -12 -47 -43 -150 -70
-230 -122 -360 -177 -572 -206 -790 -15 -113 -7 -349 17 -497 l23 -143 9719 0
9719 0 0 108 c0 59 -4 125 -9 147 -5 22 -12 67 -15 100 -7 65 -13 119 -21 175
-10 68 -14 106 -20 155 -3 28 -7 61 -10 75 -2 14 -7 48 -10 75 -14 116 -47
328 -100 647 -25 147 -48 289 -51 315 -2 26 -6 55 -8 63 -11 55 -51 299 -61
365 -9 65 -16 106 -30 185 -8 41 -17 92 -20 113 -3 20 -7 54 -10 75 -3 20 -12
71 -20 112 -8 41 -17 91 -20 110 -3 19 -8 42 -10 50 -2 8 -6 31 -9 50 -15 99
-115 557 -189 870 -91 381 -147 619 -151 641 -1 8 -5 23 -9 34 -3 11 -8 31
-11 45 -3 14 -7 34 -10 45 -3 11 -26 101 -52 200 -54 214 -73 292 -147 605
-119 502 -170 645 -272 759 -29 33 -32 42 -33 102 -1 89 -22 166 -88 317 -55
127 -163 327 -211 391 -168 226 -224 300 -239 316 -11 11 -31 36 -46 56 -53
71 -264 277 -364 355 -56 43 -169 129 -253 189 -186 135 -262 193 -483 366
-229 179 -383 281 -629 417 -60 33 -569 288 -730 366 -81 39 -138 76 -116 76
3 0 1 15 -3 33 -5 17 -12 48 -15 67 -29 188 -97 313 -320 590 -206 256 -310
431 -448 750 -85 196 -145 294 -242 393 -114 118 -126 126 -756 548 -253 169
-464 228 -806 225 -85 -1 -129 3 -125 9 3 6 17 26 32 45 164 214 258 404 316
642 l19 76 56 16 c152 42 298 224 405 504 14 37 30 76 35 87 21 46 118 408
133 495 9 52 18 106 21 120 3 14 7 41 10 60 3 19 7 46 9 60 18 90 60 497 71
675 8 136 16 248 20 285 20 165 27 262 27 366 0 138 -17 195 -71 233 -24 18
-30 28 -26 48 41 231 26 603 -36 873 -43 187 -63 257 -129 470 -33 108 -204
472 -243 519 -7 8 -19 28 -27 45 -26 54 -132 228 -189 311 -120 175 -257 338
-366 436 -27 25 -61 55 -75 68 -63 57 -326 242 -455 320 -305 184 -678 340
-1007 421 -68 17 -134 33 -148 35 -14 2 -65 11 -114 19 -290 50 -608 63 -926
39z"/>
</g>
</svg>
